<svg width="64" height="64" viewBox="0 0 64 64" fill="none" xmlns="http://www.w3.org/2000/svg">
<path d="M64 45.408C64 57.056 57.056 64 45.408 64H41.6C39.84 64 38.4 62.56 38.4 60.8V42.336C38.4 41.472 39.104 40.736 39.968 40.736L45.6 40.64C46.048 40.608 46.432 40.288 46.528 39.84L47.648 33.728C47.744 33.152 47.296 32.608 46.688 32.608L39.872 32.704C38.976 32.704 38.272 32 38.24 31.136L38.112 23.296C38.112 22.784 38.528 22.336 39.072 22.336L46.752 22.208C47.296 22.208 47.712 21.792 47.712 21.248L47.584 13.568C47.584 13.024 47.168 12.608 46.624 12.608L37.984 12.736C32.672 12.832 28.448 17.184 28.544 22.496L28.704 31.296C28.736 32.192 28.032 32.896 27.136 32.928L23.296 32.992C22.752 32.992 22.336 33.408 22.336 33.952L22.432 40.032C22.432 40.576 22.848 40.992 23.392 40.992L27.232 40.928C28.128 40.928 28.832 41.632 28.864 42.496L29.152 60.736C29.184 62.528 27.744 64 25.952 64H18.592C6.944 64 0 57.056 0 45.376V18.592C0 6.944 6.944 0 18.592 0H45.408C57.056 0 64 6.944 64 18.592V45.408Z" fill="#F1FAEE"/>
</svg>
