<svg width="62" height="64" viewBox="0 0 62 64" fill="none" xmlns="http://www.w3.org/2000/svg">
<path d="M31.0069 15.5912C22.21 15.5912 15.1144 22.9173 15.1144 32C15.1144 41.0827 22.21 48.4088 31.0069 48.4088C39.8038 48.4088 46.8994 41.0827 46.8994 32C46.8994 22.9173 39.8038 15.5912 31.0069 15.5912ZM31.0069 42.6679C25.3221 42.6679 20.6747 37.8837 20.6747 32C20.6747 26.1163 25.3083 21.3321 31.0069 21.3321C36.7055 21.3321 41.3391 26.1163 41.3391 32C41.3391 37.8837 36.6917 42.6679 31.0069 42.6679ZM51.2563 14.92C51.2563 17.0479 49.5965 18.7473 47.5495 18.7473C45.4886 18.7473 43.8426 17.0336 43.8426 14.92C43.8426 12.8064 45.5024 11.0927 47.5495 11.0927C49.5965 11.0927 51.2563 12.8064 51.2563 14.92ZM61.7822 18.8044C61.547 13.6776 60.4128 9.13623 56.7751 5.39462C53.1513 1.65302 48.7528 0.481981 43.7873 0.224925C38.6696 -0.0749749 23.3304 -0.0749749 18.2127 0.224925C13.261 0.467701 8.86258 1.63874 5.22487 5.38034C1.58717 9.12195 0.466815 13.6633 0.217847 18.7901C-0.0726157 24.0741 -0.0726157 39.9116 0.217847 45.1956C0.452984 50.3224 1.58717 54.8638 5.22487 58.6054C8.86258 62.347 13.2472 63.518 18.2127 63.7751C23.3304 64.075 38.6696 64.075 43.7873 63.7751C48.7528 63.5323 53.1513 62.3613 56.7751 58.6054C60.399 54.8638 61.5332 50.3224 61.7822 45.1956C62.0726 39.9116 62.0726 24.0884 61.7822 18.8044ZM55.1707 50.8651C54.0918 53.6642 52.0032 55.8206 49.2784 56.9488C45.1981 58.6197 35.516 58.2341 31.0069 58.2341C26.4978 58.2341 16.8019 58.6054 12.7354 56.9488C10.0244 55.8349 7.93586 53.6785 6.84317 50.8651C5.22487 46.6522 5.59833 36.6556 5.59833 32C5.59833 27.3444 5.23871 17.3335 6.84317 13.1349C7.92203 10.3358 10.0106 8.1794 12.7354 7.05121C16.8157 5.38034 26.4978 5.76593 31.0069 5.76593C35.516 5.76593 45.2119 5.39462 49.2784 7.05121C51.9894 8.16512 54.078 10.3215 55.1707 13.1349C56.789 17.3478 56.4155 27.3444 56.4155 32C56.4155 36.6556 56.789 46.6665 55.1707 50.8651Z" fill="#F1FAEE"/>
</svg>
