<svg width="126" height="83" viewBox="0 0 126 83" fill="none" xmlns="http://www.w3.org/2000/svg">
<path fill-rule="evenodd" clip-rule="evenodd" d="M52.434 9.0522C56.4964 5.0695 62.156 2.59636 68.4122 2.59636C76.7286 2.59636 83.9867 6.96164 87.8507 13.4421C91.3079 11.9888 95.0526 11.2396 98.8391 11.2439C113.84 11.2439 126 22.7887 126 37.0323C126 51.2758 113.84 62.8206 98.8391 62.8206C97.0049 62.8206 95.2163 62.6481 93.4868 62.32C90.0845 68.0302 83.5967 71.8897 76.154 71.8897C73.0383 71.8897 70.0907 71.2153 67.4683 70.0079C64.0177 77.6465 55.9797 83 46.6132 83C36.8595 83 28.5445 77.19 25.3544 69.0443C23.933 69.3266 22.4842 69.4687 21.0315 69.4684C9.41612 69.4697 5.84156e-05 60.5161 5.84156e-05 49.4706C-0.00865562 45.9702 0.957697 42.5288 2.80278 39.4894C4.64787 36.45 7.30724 33.9188 10.5158 32.1482C9.18467 29.2617 8.49979 26.148 8.50387 23.0014C8.50387 10.2972 19.4606 1.56524e-05 32.9763 1.56524e-05C36.7414 -0.0041185 40.4566 0.810745 43.8319 2.381C47.2071 3.95125 50.1511 6.23439 52.434 9.0522Z" fill="#00A1E0"/>
<path fill-rule="evenodd" clip-rule="evenodd" d="M18.2511 43.0433L18.761 41.7114C18.8423 41.4831 19.0255 41.5584 19.1 41.6012C19.2419 41.6803 19.3439 41.7516 19.5271 41.8528C21.0292 42.7463 22.421 42.7554 22.8551 42.7554C23.9795 42.7554 24.6768 42.1951 24.6768 41.4391V41.4001C24.6768 40.5779 23.602 40.2667 22.3604 39.9087L22.0848 39.8257C20.3801 39.3692 18.557 38.7091 18.557 36.6782V36.6367C18.557 34.7096 20.2093 33.3647 22.574 33.3647L22.833 33.3621C24.2221 33.3621 25.5643 33.7421 26.5372 34.2972C26.6254 34.349 26.7108 34.445 26.6612 34.5721L26.1375 35.904C26.0452 36.1309 25.793 35.9805 25.793 35.9805C24.778 35.4827 23.6549 35.2116 22.5106 35.1881C21.5074 35.1881 20.8625 35.6887 20.8625 36.3683V36.4111C20.8625 37.2035 21.9676 37.5419 23.2492 37.9349L23.4697 37.9997C25.1688 38.5055 26.9823 39.2058 26.9823 41.1317V41.1719C26.9823 43.2534 25.3755 44.5464 22.7917 44.5464C21.5225 44.5464 20.3085 44.3622 19.0242 43.7203C18.7816 43.588 18.5419 43.4738 18.3048 43.3117C18.28 43.278 18.1712 43.2378 18.2497 43.0433H18.2511ZM56.0876 43.0433L56.5988 41.7114C56.6733 41.4935 56.8896 41.5739 56.9365 41.6012C57.077 41.6829 57.1817 41.7516 57.3636 41.8528C58.8685 42.7463 60.2575 42.7554 60.6957 42.7554C61.816 42.7554 62.5147 42.1951 62.5147 41.4391V41.4001C62.5147 40.5779 61.4412 40.2667 60.1996 39.9087L59.924 39.8257C58.2166 39.3692 56.3935 38.7091 56.3935 36.6782V36.6367C56.3935 34.7096 58.0471 33.3647 60.4118 33.3647L60.6695 33.3621C62.0586 33.3621 63.4022 33.7421 64.3764 34.2972C64.4619 34.349 64.5487 34.445 64.5005 34.5721C64.4522 34.6901 64.0223 35.7795 63.9768 35.904C63.8817 36.1309 63.6323 35.9805 63.6323 35.9805C62.6169 35.4826 61.4932 35.2114 60.3484 35.1881C59.3452 35.1881 58.7003 35.6887 58.7003 36.3683V36.4111C58.7003 37.2035 59.8041 37.5419 61.0871 37.9349L61.3076 37.9997C63.0067 38.5055 64.8188 39.2058 64.8188 41.1317V41.1719C64.8188 43.2534 63.2134 44.5464 60.6296 44.5464C59.359 44.5464 58.145 44.3622 56.862 43.7203C56.6195 43.588 56.3797 43.4738 56.1413 43.3117C56.1165 43.278 56.0077 43.2378 56.0876 43.0433ZM84.0753 36.7807C84.2875 37.4499 84.3923 38.1852 84.3923 38.962C84.3923 39.7401 84.2875 40.4729 84.0753 41.1421C83.8813 41.7873 83.5482 42.3881 83.0969 42.9071C82.6447 43.4111 82.0776 43.8128 81.4378 44.0821C80.7763 44.3674 79.9991 44.5101 79.1255 44.5101C78.2518 44.5101 77.4718 44.3674 76.8131 44.0821C76.1733 43.8128 75.6062 43.4111 75.154 42.9071C74.7031 42.3882 74.3697 41.788 74.1742 41.1434C73.9575 40.4344 73.8508 39.6997 73.8573 38.962C73.8573 38.1839 73.9634 37.4499 74.1742 36.7807C74.3864 36.1063 74.7158 35.5123 75.1526 35.0169C75.6059 34.5108 76.1731 34.106 76.8131 33.8316C77.4732 33.5411 78.249 33.3945 79.1255 33.3945C80.0019 33.3945 80.7777 33.5411 81.4378 33.8316C82.0965 34.1208 82.656 34.5189 83.0969 35.0169C83.5351 35.5123 83.8659 36.1063 84.0753 36.7807ZM81.9201 38.962C81.9201 37.7858 81.6886 36.8611 81.2283 36.2126C80.7736 35.5694 80.0846 35.2582 79.1255 35.2582C78.1663 35.2582 77.4828 35.5694 77.0336 36.2126C76.583 36.8611 76.3529 37.7858 76.3529 38.962C76.3529 40.137 76.583 41.0681 77.0364 41.7218C77.4828 42.3728 78.1663 42.6879 79.1255 42.6879C80.0846 42.6879 80.7736 42.3715 81.2283 41.7218C81.6858 41.0681 81.9201 40.137 81.9201 38.962ZM101.794 42.3728L102.323 43.7501C102.392 43.9187 102.236 43.9926 102.236 43.9926C101.419 44.2909 100.285 44.5036 99.1813 44.5036C97.3099 44.5036 95.8768 43.9965 94.9204 42.9953C93.9696 41.9967 93.4845 40.6389 93.4845 38.9542C93.4845 38.1748 93.6044 37.4369 93.8387 36.769C94.0729 36.0946 94.4243 35.5007 94.8873 35.0053C95.3681 34.496 95.9611 34.0914 96.625 33.8199C97.314 33.5307 98.1243 33.3855 99.0283 33.3855C99.6388 33.3855 100.182 33.4205 100.647 33.4853C101.145 33.5579 101.808 33.7265 102.088 33.829C102.139 33.8471 102.28 33.912 102.223 34.0689C102.019 34.6097 101.879 34.9625 101.691 35.4553C101.608 35.6654 101.44 35.5953 101.44 35.5953C100.73 35.3852 100.049 35.2893 99.1606 35.2893C98.0926 35.2893 97.2906 35.6239 96.767 36.2788C96.2378 36.9389 95.9415 37.8039 95.9374 38.9542C95.9333 40.2161 96.2695 41.1511 96.8648 41.7296C97.4587 42.3067 98.2883 42.5985 99.3328 42.5985C99.7559 42.5985 100.156 42.5725 100.515 42.5194C100.871 42.4662 101.204 42.3624 101.518 42.247C101.518 42.247 101.721 42.1757 101.794 42.3728ZM112.832 36.3981C113.302 37.9466 113.057 39.2836 113.048 39.3576C113.03 39.5339 112.838 39.5365 112.838 39.5365L105.535 39.5314C105.581 40.5753 105.847 41.3146 106.384 41.8164C106.912 42.308 107.75 42.6231 108.884 42.6244C110.618 42.6283 111.358 42.3002 111.883 42.1173C111.883 42.1173 112.082 42.0499 112.158 42.2366L112.634 43.4959C112.73 43.7073 112.653 43.7812 112.572 43.824C112.114 44.0613 111.005 44.5049 108.894 44.5101C107.87 44.5139 106.978 44.3765 106.244 44.108C105.546 43.8647 104.917 43.4728 104.407 42.9629C103.919 42.4626 103.557 41.8656 103.347 41.216C103.121 40.5042 103.01 39.7645 103.018 39.0217C103.018 38.2436 103.124 37.5043 103.337 36.8287C103.551 36.1478 103.883 35.5474 104.325 35.0429C104.784 34.528 105.359 34.1159 106.008 33.8368C106.678 33.5398 107.507 33.3945 108.42 33.3945C109.201 33.3945 109.915 33.5528 110.509 33.794C110.966 33.9781 111.426 34.3114 111.898 34.7887C112.195 35.0896 112.649 35.7484 112.832 36.3981ZM105.57 37.8337H110.779C110.725 37.2035 110.594 36.638 110.294 36.2126C109.836 35.5694 109.205 35.2154 108.247 35.2154C107.288 35.2154 106.607 35.5694 106.157 36.2126C105.862 36.638 105.673 37.1801 105.57 37.8337ZM54.3416 36.3981C54.8102 37.9466 54.569 39.2836 54.5607 39.3576C54.5414 39.5339 54.3485 39.5365 54.3485 39.5365L47.045 39.5314C47.0918 40.5753 47.3564 41.3146 47.8952 41.8164C48.423 42.308 49.2595 42.6231 50.3936 42.6244C52.1271 42.6283 52.8699 42.3002 53.3935 42.1173C53.3935 42.1173 53.5934 42.0499 53.6678 42.2366L54.1446 43.4959C54.241 43.7073 54.1639 43.7812 54.0839 43.824C53.6237 44.0613 52.513 44.5049 50.4046 44.5101C49.3794 44.5139 48.4878 44.3765 47.7547 44.108C47.0565 43.8644 46.4274 43.4725 45.9164 42.9629C45.43 42.4621 45.0688 41.8652 44.8594 41.216C44.6318 40.5045 44.5198 39.7647 44.5273 39.0217C44.5273 38.2436 44.6348 37.5043 44.847 36.8287C45.0456 36.1767 45.3821 35.5693 45.8364 35.0429C46.2948 34.5284 46.8691 34.1164 47.5176 33.8368C48.1901 33.5398 49.0197 33.3945 49.9292 33.3945C50.648 33.3929 51.3597 33.5288 52.021 33.794C52.4785 33.9781 52.9388 34.3114 53.4087 34.7887C53.7064 35.0896 54.1597 35.7484 54.3416 36.3981ZM47.078 37.8337H52.2897C52.2346 37.2035 52.1037 36.638 51.8047 36.2126C51.3499 35.5694 50.716 35.2154 49.7583 35.2154C48.7992 35.2154 48.1171 35.5694 47.6692 36.2126C47.3716 36.638 47.1842 37.1801 47.078 37.8337ZM34.199 37.5056C34.199 37.5056 34.775 37.5536 35.4034 37.6392V37.3487C35.4034 36.4318 35.2008 36 34.8026 35.7108C34.3947 35.4177 33.7856 35.2659 32.9974 35.2659C32.9974 35.2659 31.2197 35.2452 29.8141 35.9637C29.7494 36 29.6956 36.0207 29.6956 36.0207C29.6956 36.0207 29.5192 36.0791 29.4558 35.9092L28.9391 34.6019C28.8591 34.4139 29.0038 34.3283 29.0038 34.3283C29.6612 33.8459 31.2542 33.5541 31.2542 33.5541C31.9008 33.4471 32.5558 33.3903 33.2123 33.3842C34.6703 33.3842 35.7989 33.7032 36.5665 34.3348C37.3354 34.9689 37.7268 35.9909 37.7268 37.3682L37.7309 43.6554C37.7309 43.6554 37.746 43.837 37.5628 43.8785C37.5628 43.8785 37.2941 43.9485 37.0529 44.0017C36.809 44.0549 35.9298 44.2234 35.2119 44.3376C34.4787 44.4532 33.7366 44.5113 32.9932 44.5113C32.2835 44.5113 31.6331 44.4491 31.0599 44.3259C30.5256 44.2206 30.0197 44.0141 29.573 43.719C29.1658 43.4407 28.839 43.0712 28.6221 42.6439C28.3975 42.212 28.2845 41.6842 28.2845 41.0746C28.2845 40.4768 28.4182 39.9438 28.6759 39.4899C28.9349 39.0385 29.2905 38.656 29.7369 38.3564C30.1982 38.0508 30.7139 37.8254 31.2597 37.6911C31.8288 37.5484 32.4337 37.4745 33.0594 37.4745C33.5183 37.4745 33.9013 37.4836 34.199 37.5056ZM31.2927 42.3352C31.2886 42.3339 31.9473 42.8215 33.4342 42.7359C34.4787 42.6763 35.4048 42.4895 35.4048 42.4895V39.3641C35.4048 39.3641 34.4705 39.2201 33.4218 39.2058C31.9349 39.189 31.301 39.7038 31.3051 39.7025C30.8669 39.9956 30.6533 40.4301 30.6533 41.0318C30.6533 41.417 30.7264 41.7179 30.8738 41.928C30.9661 42.0667 31.0061 42.1186 31.2927 42.3352ZM93.1042 33.9639C93.0353 34.1519 92.6811 35.0934 92.553 35.406C92.5061 35.5253 92.4289 35.607 92.287 35.5927C92.287 35.5927 91.8681 35.502 91.485 35.502C91.2218 35.502 90.8456 35.5331 90.5066 35.6316C90.1666 35.73 89.8572 35.9049 89.6054 36.1413C89.338 36.3838 89.1217 36.7249 88.9646 37.1529C88.8047 37.5834 88.722 38.2682 88.722 38.9555V44.0756C88.7222 44.103 88.7167 44.1301 88.7057 44.1554C88.6946 44.1807 88.6784 44.2038 88.658 44.2232C88.6375 44.2426 88.6131 44.258 88.5863 44.2685C88.5594 44.279 88.5306 44.2844 88.5015 44.2844H86.5847C86.5554 44.2847 86.5263 44.2796 86.4991 44.2694C86.4718 44.2592 86.447 44.244 86.426 44.2247C86.4051 44.2054 86.3883 44.1825 86.3768 44.1571C86.3652 44.1317 86.3591 44.1045 86.3587 44.0769V33.8251C86.3587 33.7097 86.4483 33.6176 86.5709 33.6176H88.4409C88.5649 33.6176 88.6531 33.7097 88.6531 33.8251V34.6629C88.9329 34.3101 89.4345 33.9989 89.8878 33.8069C90.3426 33.6124 90.8511 33.4698 91.7702 33.5216C92.2484 33.5489 92.8699 33.6721 92.9953 33.7175C93.0198 33.7267 93.0421 33.7405 93.0609 33.7579C93.0797 33.7754 93.0946 33.7962 93.1048 33.8191C93.1149 33.8421 93.1201 33.8667 93.12 33.8916C93.1199 33.9164 93.1145 33.941 93.1042 33.9639ZM75.0933 29.2134C75.1443 29.2329 75.2835 29.2964 75.2284 29.452L74.6675 30.8955C74.6207 31.0044 74.5904 31.0692 74.352 31.0018C74.0367 30.9085 73.7082 30.8604 73.3777 30.8592C73.0883 30.8592 72.8265 30.8942 72.595 30.9668C72.3633 31.0366 72.1533 31.1586 71.9831 31.3221C71.7567 31.5281 71.5816 31.7788 71.4705 32.0562C71.2018 32.7824 71.0984 33.5567 71.0847 33.6059H73.419C73.6161 33.6059 73.6781 33.6915 73.6588 33.8277L73.386 35.2569C73.3419 35.4644 73.1421 35.4566 73.1421 35.4566H70.736L69.092 44.2183C68.9507 45.004 68.7358 45.7765 68.4499 46.5267C68.1922 47.1609 67.9262 47.6238 67.499 48.0661C67.1344 48.4618 66.6708 48.7658 66.1499 48.9506C65.6442 49.1256 65.0296 49.2151 64.3585 49.2151C64.0388 49.2151 63.6943 49.2086 63.2878 49.1178C63.0613 49.0692 62.8381 49.0077 62.6194 48.9337C62.5299 48.9039 62.4568 48.7962 62.5092 48.6588C62.5588 48.5226 62.9915 47.4086 63.0494 47.262C63.1238 47.0856 63.314 47.1531 63.314 47.1531C63.4435 47.205 63.5345 47.2387 63.7067 47.2711C63.8817 47.3035 64.116 47.3321 64.2937 47.3321C64.6121 47.3321 64.9015 47.2957 65.1536 47.2153C65.4568 47.1233 65.6359 46.956 65.8206 46.7329C66.0135 46.4982 66.1706 46.1804 66.3318 45.7538C66.4931 45.3219 66.6405 44.7513 66.7673 44.06L68.4044 35.4579H66.7921C66.5992 35.4579 66.533 35.3723 66.5551 35.2348L66.8252 33.8056C66.8679 33.5981 67.0732 33.6059 67.0732 33.6059H68.7282L68.8178 33.1417C69.0659 31.7618 69.5578 30.7126 70.2854 30.024C71.0171 29.3301 72.0576 28.98 73.3777 28.98C73.7553 28.98 74.0888 29.0033 74.3713 29.0513C74.6482 29.1006 74.8591 29.146 75.0933 29.2134ZM42.4672 44.0756C42.4672 44.1923 42.3817 44.2844 42.2577 44.2844H40.3216C40.1976 44.2844 40.1135 44.191 40.1135 44.0769V29.4054C40.1135 29.2925 40.1989 29.1992 40.3202 29.1992H42.2577C42.3817 29.1992 42.4672 29.2925 42.4672 29.4067V44.0756Z" fill="#F1FAEE"/>
</svg>
